<?xml version="1.0" encoding="UTF-8"?>
<svg width="524px" height="160px" viewBox="0 0 524 160" version="1.1" xmlns="http://www.w3.org/2000/svg" xmlns:xlink="http://www.w3.org/1999/xlink">
    <title>bosci_logo_color</title>
    <g id="Brand-Identity" stroke="none" stroke-width="1" fill="none" fill-rule="evenodd">
        <g id="Logo-v2.0" transform="translate(-157.000000, -140.000000)">
            <g id="bosci_logo_color" transform="translate(128.868043, 114.285714)">
                <rect id="footprint" fill="#F6F6F6" opacity="0" x="28.1319568" y="25.7142857" width="531.78022" height="160"></rect>
                <g id="Group-2" transform="translate(28.131957, 25.714286)" fill-rule="nonzero">
                    <path d="M305.945214,160 C296.71421,160 288.433456,158.352249 281.102953,155.056747 C273.77245,151.761244 267.969135,147.288777 263.693008,141.639344 C259.416882,135.989912 257.075193,129.735183 256.667943,122.875158 L285.37908,122.875158 C285.92208,127.179487 288.060144,130.74401 291.79327,133.568726 C295.526397,136.393443 300.175836,137.805801 305.741589,137.805801 C311.171591,137.805801 315.41378,136.729718 318.468156,134.577554 C321.522533,132.425389 323.049721,129.667928 323.049721,126.30517 C323.049721,122.673392 321.183158,119.949559 317.450031,118.13367 C313.716904,116.317781 307.777839,114.333754 299.632836,112.181589 C291.216332,110.163934 284.327017,108.079025 278.96489,105.92686 C273.602763,103.774695 268.987261,100.479193 265.118384,96.0403531 C261.249507,91.6015132 259.315069,85.615805 259.315069,78.0832282 C259.315069,71.8957545 261.113757,66.246322 264.711134,61.1349306 C268.30851,56.0235393 273.467013,51.9882303 280.18664,49.0290038 C286.906268,46.0697772 294.813709,44.5901639 303.908963,44.5901639 C317.348218,44.5901639 328.072473,47.9192938 336.081726,54.5775536 C344.09098,61.2358134 348.502856,70.2143758 349.317357,81.5132409 L322.031595,81.5132409 C321.624345,77.074401 319.757782,73.5435057 316.431906,70.9205549 C313.106029,68.297604 308.660215,66.9861286 303.094462,66.9861286 C297.93596,66.9861286 293.965271,67.9277007 291.182395,69.8108449 C288.399519,71.6939891 287.008081,74.3169399 287.008081,77.6796974 C287.008081,81.4459857 288.908582,84.3043296 292.709583,86.2547289 C296.510585,88.2051282 302.415712,90.1891551 310.424966,92.2068096 C318.569969,94.2244641 325.289597,96.3093737 330.583849,98.4615385 C335.878101,100.613703 340.459666,103.942833 344.328542,108.448928 C348.197419,112.955023 350.199732,118.907104 350.335482,126.30517 C350.335482,132.761665 348.536794,138.545607 344.939417,143.656999 C341.342041,148.76839 336.183539,152.770071 329.463911,155.662043 C322.744283,158.554014 314.904717,160 305.945214,160 Z M363.824906,102.295082 C363.824906,90.7271963 366.200532,80.6052963 370.951784,71.9293821 C375.703036,63.2534678 382.286913,56.5279529 390.703417,51.7528373 C399.11992,46.9777217 408.758174,44.5901639 419.618179,44.5901639 C433.600435,44.5901639 445.173127,48.0538041 454.336256,54.9810845 C463.499385,61.9083649 469.642075,71.6267339 472.764326,84.1361917 L442.016938,84.1361917 C440.387938,79.2938209 437.638999,75.493905 433.770122,72.7364439 C429.901246,69.9789828 425.116056,68.6002522 419.414554,68.6002522 C411.269551,68.6002522 404.821423,71.5258512 400.070171,77.3770492 C395.318919,83.2282472 392.943293,91.5342581 392.943293,102.295082 C392.943293,112.921396 395.318919,121.160151 400.070171,127.011349 C404.821423,132.862547 411.269551,135.788146 419.414554,135.788146 C430.953309,135.788146 438.487437,130.676755 442.016938,120.453972 L472.764326,120.453972 C469.642075,132.559899 463.465447,142.177385 454.234444,149.306431 C445.00344,156.435477 433.464685,160 419.618179,160 C408.758174,160 399.11992,157.612442 390.703417,152.837327 C382.286913,148.062211 375.703036,141.336696 370.951784,132.660782 C366.200532,123.984868 363.824906,113.862968 363.824906,102.295082 Z M505.598133,33.0895334 C500.575381,33.0895334 496.401066,31.5090374 493.07519,28.3480454 C489.749314,25.1870534 488.086375,21.2526272 488.086375,16.5447667 C488.086375,11.8369063 489.749314,7.90248003 493.07519,4.74148802 C496.401066,1.58049601 500.575381,0 505.598133,0 C510.620885,0 514.795199,1.58049601 518.121076,4.74148802 C521.446952,7.90248003 523.10989,11.8369063 523.10989,16.5447667 C523.10989,21.2526272 521.446952,25.1870534 518.121076,28.3480454 C514.795199,31.5090374 510.620885,33.0895334 505.598133,33.0895334 Z M519.648264,46.406053 L519.648264,158.184111 L491.140752,158.184111 L491.140752,46.406053 L519.648264,46.406053 Z" id="sci" fill="#5850EC"></path>
                    <path d="M28.5075119,62.7490542 C32.1727635,57.3686423 37.2294531,52.9970576 43.6775808,49.6343001 C50.1257085,46.2715427 57.4901491,44.5901639 65.7709025,44.5901639 C75.4091566,44.5901639 84.1310977,46.9440942 91.936726,51.6519546 C99.7423543,56.359815 105.918982,63.0517024 110.466609,71.7276166 C115.014236,80.4035309 117.288049,90.4581757 117.288049,101.891551 C117.288049,113.324926 115.014236,123.446826 110.466609,132.257251 C105.918982,141.067675 99.7423543,147.894073 91.936726,152.736444 C84.1310977,157.578815 75.4091566,160 65.7709025,160 C57.354399,160 49.9899584,158.352249 43.6775808,155.056747 C37.3652031,151.761244 32.3085135,147.490542 28.5075119,142.244641 L28.5075119,158.184111 L0,158.184111 L0,8.8776797 L28.5075119,8.8776797 L28.5075119,62.7490542 Z M88.1696619,101.891551 C88.1696619,95.1660361 86.7782238,89.3484657 83.9953477,84.4388398 C81.2124715,79.529214 77.54722,75.7965532 72.9995931,73.2408575 C68.4519662,70.6851618 63.5310266,69.407314 58.2367744,69.407314 C53.0782722,69.407314 48.2252077,70.7187894 43.6775808,73.3417402 C39.1299539,75.964691 35.4647023,79.764607 32.6818262,84.741488 C29.89895,89.7183691 28.5075119,95.569567 28.5075119,102.295082 C28.5075119,109.020597 29.89895,114.871795 32.6818262,119.848676 C35.4647023,124.825557 39.1299539,128.625473 43.6775808,131.248424 C48.2252077,133.871375 53.0782722,135.18285 58.2367744,135.18285 C63.5310266,135.18285 68.4519662,133.837747 72.9995931,131.147541 C77.54722,128.457335 81.2124715,124.623792 83.9953477,119.64691 C86.7782238,114.670029 88.1696619,108.751576 88.1696619,101.891551 Z M185.55262,160 C174.692616,160 164.918612,157.612442 156.230608,152.837327 C147.542605,148.062211 140.721164,141.303069 135.766287,132.559899 C130.81141,123.81673 128.333972,113.728457 128.333972,102.295082 C128.333972,90.8617066 130.879285,80.7734342 135.969912,72.0302648 C141.060539,63.2870954 148.01773,56.5279529 156.841483,51.7528373 C165.665237,46.9777217 175.507116,44.5901639 186.367121,44.5901639 C197.227125,44.5901639 207.069004,46.9777217 215.892758,51.7528373 C224.716512,56.5279529 231.673702,63.2870954 236.764329,72.0302648 C241.854957,80.7734342 244.40027,90.8617066 244.40027,102.295082 C244.40027,113.728457 241.787082,123.81673 236.560704,132.559899 C231.334327,141.303069 224.275324,148.062211 215.383695,152.837327 C206.492067,157.612442 196.548375,160 185.55262,160 Z M185.55262,135.384615 C190.711123,135.384615 195.564187,134.140395 200.111814,131.651955 C204.659441,129.163514 208.290755,125.430853 211.005756,120.453972 C213.720757,115.477091 215.078258,109.424128 215.078258,102.295082 C215.078258,91.6687684 212.261444,83.4972678 206.627817,77.7805801 C200.994189,72.0638924 194.104874,69.2055485 185.959871,69.2055485 C177.814867,69.2055485 170.993427,72.0638924 165.49555,77.7805801 C159.997672,83.4972678 157.248734,91.6687684 157.248734,102.295082 C157.248734,112.921396 159.929797,121.092896 165.291924,126.809584 C170.654052,132.526272 177.407617,135.384615 185.55262,135.384615 Z M226.481263,11.94047 L226.481263,26.3949651 C226.481263,27.9750655 225.200338,29.2559899 223.620238,29.2559899 L151.557505,29.2559899 C149.977404,29.2559899 148.69648,27.9750655 148.69648,26.3949651 L148.69648,11.94047 C148.69648,10.3603696 149.977404,9.07944515 151.557505,9.07944515 L223.620238,9.07944515 C225.200338,9.07944515 226.481263,10.3603696 226.481263,11.94047 Z" id="bo" fill="#1D2349"></path>
                </g>
            </g>
        </g>
    </g>
</svg>