<svg width="526" height="160" viewBox="0 0 526 160" xmlns="http://www.w3.org/2000/svg">
    <g fill-rule="nonzero" fill="none">
        <path d="M11.209 146.029c-1.698 0-3.339-.241-4.921-.723-1.583-.482-2.836-1.121-3.758-1.917l1.415-3.175c.901.713 2.007 1.294 3.318 1.745 1.31.45 2.625.675 3.946.675 1.635 0 2.856-.262 3.663-.785.807-.524 1.211-1.216 1.211-2.075 0-.628-.225-1.147-.676-1.555-.45-.409-1.022-.729-1.714-.959-.692-.23-1.635-.492-2.83-.786-1.677-.398-3.034-.796-4.072-1.194a6.702 6.702 0 0 1-2.673-1.87c-.744-.849-1.116-1.996-1.116-3.441 0-1.216.33-2.32.99-3.316.66-.995 1.656-1.786 2.988-2.373 1.33-.587 2.96-.88 4.89-.88 1.341 0 2.662.168 3.961.503 1.3.335 2.422.817 3.365 1.446l-1.29 3.174a12.723 12.723 0 0 0-3.018-1.289 11.298 11.298 0 0 0-3.05-.44c-1.614 0-2.815.273-3.6.817-.787.545-1.18 1.268-1.18 2.169 0 .629.225 1.142.676 1.54.45.398 1.022.712 1.714.943.692.23 1.635.492 2.83.786 1.635.377 2.977.77 4.025 1.178a6.893 6.893 0 0 1 2.689 1.87c.744.838 1.116 1.97 1.116 3.394 0 1.216-.33 2.316-.99 3.3-.66.985-1.662 1.77-3.004 2.358-1.341.586-2.976.88-4.905.88zm28.395-9.523-3.49 3.583v5.625h-4.088v-22h4.088v11.283l10.88-11.283h4.591l-9.245 9.837 9.811 12.163h-4.78l-7.767-9.208zm23.207-12.792H66.9v22h-4.088v-22zm37.452 0v22h-3.365L84.76 130.817v14.897h-4.056v-22h3.365l12.138 14.897v-14.897h4.056zM137.4 146.03c-1.698 0-3.338-.241-4.92-.723-1.584-.482-2.836-1.121-3.759-1.917l1.415-3.175c.902.713 2.008 1.294 3.318 1.745 1.31.45 2.626.675 3.946.675 1.636 0 2.857-.262 3.664-.785.807-.524 1.21-1.216 1.21-2.075 0-.628-.225-1.147-.676-1.555-.45-.409-1.022-.729-1.713-.959-.692-.23-1.636-.492-2.83-.786-1.678-.398-3.035-.796-4.073-1.194a6.702 6.702 0 0 1-2.673-1.87c-.744-.849-1.116-1.996-1.116-3.441 0-1.216.33-2.32.99-3.316.66-.995 1.657-1.786 2.988-2.373 1.331-.587 2.961-.88 4.89-.88 1.341 0 2.662.168 3.962.503 1.3.335 2.421.817 3.365 1.446l-1.29 3.174a12.723 12.723 0 0 0-3.019-1.289 11.298 11.298 0 0 0-3.05-.44c-1.614 0-2.814.273-3.6.817-.786.545-1.18 1.268-1.18 2.169 0 .629.226 1.142.677 1.54.45.398 1.022.712 1.713.943.692.23 1.636.492 2.83.786 1.636.377 2.977.77 4.026 1.178a6.893 6.893 0 0 1 2.688 1.87c.744.838 1.116 1.97 1.116 3.394 0 1.216-.33 2.316-.99 3.3-.66.985-1.661 1.77-3.003 2.358-1.342.586-2.977.88-4.906.88zm31.006 0c-2.222 0-4.23-.488-6.022-1.462-1.792-.974-3.197-2.32-4.214-4.038-1.017-1.719-1.525-3.657-1.525-5.815 0-2.158.514-4.096 1.54-5.814 1.028-1.718 2.438-3.064 4.23-4.039 1.793-.974 3.8-1.461 6.022-1.461 1.803 0 3.449.314 4.937.943a10.07 10.07 0 0 1 3.774 2.734l-2.642 2.483c-1.593-1.718-3.553-2.577-5.88-2.577-1.51 0-2.862.33-4.057.99a7.134 7.134 0 0 0-2.798 2.75c-.671 1.173-1.007 2.504-1.007 3.991 0 1.488.336 2.818 1.007 3.992a7.134 7.134 0 0 0 2.798 2.75c1.195.66 2.547.99 4.057.99 2.327 0 4.287-.87 5.88-2.609l2.642 2.514a10.043 10.043 0 0 1-3.79 2.735c-1.498.628-3.15.943-4.952.943zm20.534-22.315h4.088v22h-4.088v-22zm34.401 18.575v3.425h-16.509v-22h16.07v3.426H210.92v5.72h10.629v3.363H210.92v6.066h12.421zm31.98-18.575v22h-3.364l-12.138-14.897v14.897h-4.057v-22h3.365l12.138 14.897v-14.897h4.057zm23.962 22.315c-2.222 0-4.23-.488-6.022-1.462-1.792-.974-3.197-2.32-4.213-4.038-1.017-1.719-1.526-3.657-1.526-5.815 0-2.158.514-4.096 1.541-5.814 1.028-1.718 2.437-3.064 4.23-4.039 1.792-.974 3.8-1.461 6.022-1.461 1.802 0 3.448.314 4.937.943a10.07 10.07 0 0 1 3.773 2.734l-2.641 2.483c-1.594-1.718-3.554-2.577-5.88-2.577-1.51 0-2.862.33-4.057.99a7.134 7.134 0 0 0-2.799 2.75c-.67 1.173-1.006 2.504-1.006 3.991 0 1.488.335 2.818 1.006 3.992a7.134 7.134 0 0 0 2.799 2.75c1.195.66 2.547.99 4.056.99 2.327 0 4.287-.87 5.88-2.609l2.642 2.514a10.043 10.043 0 0 1-3.79 2.735c-1.498.628-3.149.943-4.952.943zm37.043-3.74v3.425h-16.509v-22h16.069v3.426h-11.98v5.72h10.628v3.363h-10.629v6.066h12.421z" fill="#F6F6F6"/>
        <path d="M51.542 51.326c4.723.88 8.605 3.24 11.647 7.08 3.041 3.84 4.562 8.24 4.562 13.2 0 4.48-1.1 8.42-3.302 11.82-2.2 3.4-5.383 6.06-9.545 7.98-4.162 1.92-9.085 2.88-14.768 2.88H3.996v-83.76h34.58c5.682 0 10.585.92 14.707 2.76 4.122 1.84 7.244 4.4 9.365 7.68 2.121 3.28 3.182 7 3.182 11.16 0 4.88-1.3 8.96-3.902 12.24-2.601 3.28-6.063 5.6-10.386 6.96zm-30.736-6.24h15.368c4.002 0 7.084-.9 9.245-2.7 2.161-1.8 3.242-4.38 3.242-7.74 0-3.36-1.08-5.96-3.242-7.8-2.161-1.84-5.243-2.76-9.245-2.76H20.806v21zm16.929 35.52c4.082 0 7.264-.96 9.545-2.88 2.281-1.92 3.422-4.64 3.422-8.16 0-3.6-1.2-6.42-3.602-8.46-2.401-2.04-5.643-3.06-9.725-3.06h-16.57v22.56h16.93zm67.282 14.76c-6.403 0-12.167-1.42-17.29-4.26-5.122-2.84-9.144-6.86-12.066-12.06-2.921-5.2-4.382-11.2-4.382-18 0-6.8 1.5-12.8 4.502-18 3.002-5.2 7.104-9.22 12.307-12.06s11.006-4.26 17.41-4.26c6.403 0 12.206 1.42 17.409 4.26 5.203 2.84 9.305 6.86 12.306 12.06 3.002 5.2 4.503 11.2 4.503 18 0 6.8-1.54 12.8-4.623 18-3.081 5.2-7.244 9.22-12.486 12.06-5.243 2.84-11.106 4.26-17.59 4.26zm0-14.64c3.042 0 5.903-.74 8.585-2.22 2.681-1.48 4.822-3.7 6.423-6.66s2.401-6.56 2.401-10.8c0-6.32-1.66-11.18-4.982-14.58-3.322-3.4-7.384-5.1-12.187-5.1-4.802 0-8.825 1.7-12.066 5.1-3.242 3.4-4.863 8.26-4.863 14.58s1.58 11.18 4.743 14.58c3.161 3.4 7.143 5.1 11.946 5.1zm60.919-39.12v32.16c0 2.24.54 3.86 1.62 4.86 1.081 1 2.902 1.5 5.464 1.5h7.804v14.16h-10.566c-14.168 0-21.251-6.88-21.251-20.64v-32.04h-7.925v-13.8h7.925v-16.44h16.929v16.44h14.888v13.8h-14.888zm16.975 19.2c0-6.72 1.34-12.68 4.022-17.88 2.681-5.2 6.323-9.2 10.926-12 4.602-2.8 9.745-4.2 15.428-4.2 4.963 0 9.305 1 13.027 3 3.722 2 6.704 4.52 8.945 7.56v-9.48h16.93v66.48h-16.93v-9.72c-2.161 3.12-5.143 5.7-8.945 7.74-3.802 2.04-8.184 3.06-13.147 3.06-5.603 0-10.706-1.44-15.308-4.32-4.603-2.88-8.245-6.94-10.926-12.18-2.681-5.24-4.022-11.26-4.022-18.06zm52.348.24c0-4.08-.8-7.58-2.401-10.5-1.601-2.92-3.762-5.16-6.484-6.72-2.721-1.56-5.643-2.34-8.764-2.34-3.122 0-6.004.76-8.645 2.28-2.642 1.52-4.783 3.74-6.424 6.66-1.64 2.92-2.46 6.38-2.46 10.38 0 4 .82 7.5 2.46 10.5 1.641 3 3.803 5.3 6.484 6.9 2.681 1.6 5.543 2.4 8.585 2.4 3.121 0 6.043-.78 8.764-2.34 2.722-1.56 4.883-3.8 6.484-6.72 1.6-2.92 2.401-6.42 2.401-10.5zm64.521-34.2c7.924 0 14.328 2.5 19.21 7.5 4.883 5 7.324 11.98 7.324 20.94v39h-16.809v-36.72c0-5.28-1.32-9.34-3.962-12.18-2.641-2.84-6.243-4.26-10.806-4.26-4.642 0-8.304 1.42-10.986 4.26-2.681 2.84-4.022 6.9-4.022 12.18v36.72H262.92v-66.48h16.81v8.28c2.24-2.88 5.102-5.14 8.584-6.78 3.482-1.64 7.304-2.46 11.466-2.46zm45.31-6.96c-2.961 0-5.423-.94-7.384-2.82-1.96-1.88-2.941-4.22-2.941-7.02s.98-5.14 2.941-7.02c1.961-1.88 4.423-2.82 7.384-2.82 2.962 0 5.423.94 7.384 2.82 1.961 1.88 2.942 4.22 2.942 7.02s-.98 5.14-2.942 7.02c-1.96 1.88-4.422 2.82-7.384 2.82zm8.285 7.92v66.48h-16.81v-66.48h16.81zm6.53 33.24c0-6.88 1.4-12.9 4.201-18.06 2.802-5.16 6.684-9.16 11.647-12 4.962-2.84 10.645-4.26 17.049-4.26 8.244 0 15.068 2.06 20.471 6.18 5.403 4.12 9.025 9.9 10.866 17.34h-18.13c-.96-2.88-2.581-5.14-4.863-6.78-2.28-1.64-5.102-2.46-8.464-2.46-4.803 0-8.605 1.74-11.406 5.22-2.802 3.48-4.203 8.42-4.203 14.82 0 6.32 1.401 11.22 4.203 14.7 2.801 3.48 6.603 5.22 11.406 5.22 6.804 0 11.246-3.04 13.327-9.12h18.13c-1.841 7.2-5.483 12.92-10.926 17.16-5.443 4.24-12.247 6.36-20.411 6.36-6.404 0-12.087-1.42-17.05-4.26-4.962-2.84-8.844-6.84-11.646-12-2.801-5.16-4.202-11.18-4.202-18.06zm66.56-.24c0-6.72 1.342-12.68 4.023-17.88 2.682-5.2 6.324-9.2 10.926-12 4.603-2.8 9.745-4.2 15.428-4.2 4.963 0 9.305 1 13.028 3 3.722 2 6.703 4.52 8.944 7.56v-9.48h16.93v66.48h-16.93v-9.72c-2.16 3.12-5.142 5.7-8.944 7.74-3.803 2.04-8.185 3.06-13.148 3.06-5.603 0-10.705-1.44-15.308-4.32-4.602-2.88-8.244-6.94-10.926-12.18-2.681-5.24-4.022-11.26-4.022-18.06zm52.35.24c0-4.08-.801-7.58-2.402-10.5-1.6-2.92-3.762-5.16-6.483-6.72-2.722-1.56-5.644-2.34-8.765-2.34-3.122 0-6.003.76-8.645 2.28-2.641 1.52-4.783 3.74-6.423 6.66-1.641 2.92-2.462 6.38-2.462 10.38 0 4 .82 7.5 2.462 10.5 1.64 3 3.802 5.3 6.483 6.9 2.682 1.6 5.543 2.4 8.585 2.4 3.121 0 6.043-.78 8.765-2.34 2.721-1.56 4.882-3.8 6.483-6.72 1.6-2.92 2.401-6.42 2.401-10.5zm44.47-55.56v88.8h-16.81v-88.8h16.81z" fill="#FFF"/>
    </g>
</svg>
