<svg width="41" height="40" viewBox="0 0 41 40" xmlns="http://www.w3.org/2000/svg">
    <path d="M24.641 9.356c.904.663 1.454 1.404 1.454 2.324v1.366l1.612.001c1.482 0 2.7 1.193 2.788 2.69l.005.174v11.67c0 2.432-1.938 4.419-4.311 4.419H14.812c-2.374 0-4.312-1.987-4.312-4.42V15.91c0-1.577 1.255-2.863 2.793-2.863l1.611-.001V11.68c0-.92.552-1.662 1.455-2.324a7.002 7.002 0 0 1 8.282 0zm3.066 5.858-1.612-.001v2.019a1.07 1.07 0 0 1-1.056 1.083 1.07 1.07 0 0 1-1.057-1.083l-.001-2.019h-6.963v2.019a1.07 1.07 0 0 1-1.056 1.083 1.07 1.07 0 0 1-1.057-1.083l-.001-2.019h-1.61a.692.692 0 0 0-.673.596l-.007.102v11.67c0 1.236.991 2.252 2.198 2.252h11.377c1.206 0 2.197-1.016 2.197-2.253V15.91a.694.694 0 0 0-.679-.696zm-10.118-4.096c-.403.296-.57.521-.57.562l-.001 1.366h6.963V11.68c0-.04-.167-.266-.57-.562a4.93 4.93 0 0 0-5.822 0z" fill="#F6F6F6" fill-rule="nonzero"/>
</svg>
