<svg width="100" height="80" viewBox="0 0 100 80" xmlns="http://www.w3.org/2000/svg">
    <path d="m64.54 0 1.258 1.224.227.226A51.017 51.017 0 0 1 71.5 8.022c2.858 4.099 4.554 7.972 4.554 11.478 0 4.283-1.29 8.204-3.415 11.024 1.826-1.205 4.01-2.227 6.486-3.094 2.566-.897 5.298-1.577 8.028-2.071a57.049 57.049 0 0 1 3.424-.514L93 24.608l-.21 2.178c-.013.131-.035.332-.067.594l-.104.788c-.098.706-.22 1.476-.368 2.294-.494 2.733-1.173 5.469-2.07 8.038-1.346 3.855-3.068 7.003-5.264 9.202-5.067 5.073-11.441 7.735-16.13 6.625l-.101-.026-.122.023c-.13.027-.282.065-.474.119l-.152.043-1.245.376c-.137.04-.258.075-.37.105l-.008 8.691c.044-.086.094-.17.153-.25a31.425 31.425 0 0 0 3.82-6.973 1.8 1.8 0 1 1 3.35 1.318 35.03 35.03 0 0 1-4.258 7.774 1.799 1.799 0 0 1-3.067-.254l-.01 12.763a1.801 1.801 0 1 1-3.6 0l.007-5.799c-.12.248-.298.473-.532.65A34.85 34.85 0 0 1 41.028 80C21.681 80 6 64.3 6 44.932S21.682 9.863 41.027 9.863c3.97 0 7.853.663 11.529 1.945a1.803 1.803 0 0 1-1.184 3.404 31.352 31.352 0 0 0-10.345-1.744A31.254 31.254 0 0 0 25.24 17.72c.011.074.015.15.01.227-.138 2.25 1.09 4.556 3.032 5.697l.176.101c.238.132.49.257.853.423l1.144.512c2.273 1.036 3.224 1.773 3.758 3.358.464 1.376.168 2.87-.637 4.401-.941 1.79-2.001 3.015-4.381 5.32l-.988.956c-1.412 1.38-2.122 2.158-2.83 3.148-.807 1.127-1.181 2.116-1.067 2.973l.019.129.296.064 10.71 2.159.344.074c.585.137.94.288 1.33.621.643.552.921 1.354.951 2.27.085 2.565-1.79 5.01-4.287 5.593l-.205.044c-.17.033-.345.06-.592.094l-.474.063a3.914 3.914 0 0 0-.707.147c-1.366.444-2.22 2.225-2.381 4.633l-.042.747-.044.911c-.13 2.49-.447 3.975-1.415 5.324l-.188.25-.117.146c-.234.293-.3.403-.307.457-.011.085.136.308.542.677l3.261 2.858c1.294 1.133 2.217 2.267 2.594 3.414a31.449 31.449 0 0 0 8.523.866c.176-.368.276-.822.255-1.297-.024-.564-.137-1.079-.426-2.03l-.293-.954c-.065-.22-.115-.399-.16-.574l-.051-.21-.025-.108c-.442-1.946-.145-3.812 1.14-4.961.785-.7 1.507-.933 3.033-1.162l.363-.053c.942-.136 1.395-.248 1.791-.472.489-.275.829-.664 1.423-1.598l.25-.4c.833-1.349 1.293-1.948 2.111-2.512 1.662-1.148 3.458-1.116 6.327-.385l3.681.97a1.081 1.081 0 0 1-.55 2.09l-3.409-.898-.49-.125c-2.14-.522-3.39-.523-4.332.128-.431.297-.743.672-1.275 1.509l-.255.407c-.928 1.504-1.445 2.148-2.42 2.698-.655.37-1.26.534-2.312.694l-.746.11c-.986.157-1.402.3-1.751.612-.585.523-.758 1.61-.473 2.868l.043.18c.044.18.094.36.165.6l.213.695c.39 1.26.55 1.941.587 2.788.017.415-.016.828-.097 1.225a31.214 31.214 0 0 0 15.564-6.196 1.799 1.799 0 0 1 2.709.652l.015-15.712c-.1-.027-.21-.058-.33-.094l-1.105-.334a12.55 12.55 0 0 0-.592-.164l-.175-.04-.123-.023-.055.015c-4.615 1.12-10.879-1.436-15.92-6.362l-.256-.252c-2.196-2.199-3.917-5.347-5.264-9.202-.896-2.57-1.575-5.305-2.069-8.038a57.24 57.24 0 0 1-.513-3.428l-.236-2.426 2.175.21c.13.013.33.035.593.068l.787.103a57.97 57.97 0 0 1 2.292.37c2.73.494 5.462 1.174 8.028 2.071 2.475.867 4.658 1.888 6.485 3.091-2.125-2.82-3.415-6.739-3.415-11.021 0-3.506 1.696-7.38 4.555-11.478a51.027 51.027 0 0 1 5.478-6.575l.185-.186L64.541 0zM23.118 19.074l-.259.181C14.836 24.955 9.6 34.332 9.6 44.932c0 13.664 8.7 25.294 20.857 29.64-.21-.23-.448-.464-.713-.703l-3.325-2.914c-1-.877-1.5-1.611-1.359-2.68.07-.529.251-.865.648-1.376l.271-.345c.66-.868.934-1.92 1.062-3.778l.048-.868.057-1.124.012-.201c.214-3.194 1.444-5.757 3.87-6.545l.214-.065a7.06 7.06 0 0 1 .995-.186l.452-.06a5.36 5.36 0 0 0 .494-.088c1.493-.348 2.67-1.882 2.618-3.415-.012-.367-.096-.611-.196-.697-.084-.072-.253-.13-.697-.22l-10.71-2.158c-.674-.136-1.047-.273-1.435-.678-.359-.37-.522-.815-.594-1.349-.202-1.513.355-2.988 1.451-4.518l.218-.299c.8-1.073 1.637-1.956 3.263-3.529l.805-.778c2.065-2.012 2.983-3.093 3.758-4.566.557-1.059.741-1.992.502-2.703-.29-.858-.95-1.34-2.84-2.186l-.791-.353a13.104 13.104 0 0 1-1.347-.68c-2.28-1.34-3.813-3.815-4.07-6.436zm65.778 9.643-.35.057c-.245.041-.496.085-.752.131-2.557.464-5.112 1.099-7.48 1.928-3.386 1.185-6.084 2.664-7.835 4.416-3.707 3.711-5.35 7.364-5.904 12.698 2.739-5.251 7.089-9.764 12.602-12.193a1.082 1.082 0 0 1 .87 1.98c-5.67 2.498-10.039 7.47-12.455 13.109.737-.186 1.209-.22 1.745-.095l.298.076c3.278.766 8.471-1.4 12.736-5.67 1.751-1.753 3.228-4.455 4.412-7.844.828-2.371 1.462-4.93 1.925-7.49.046-.256.09-.507.13-.752l.058-.351zm-48.705 0 .058.35c.04.246.084.497.13.754.463 2.56 1.098 5.118 1.926 7.49 1.183 3.388 2.66 6.09 4.411 7.842 4.345 4.35 9.651 6.517 12.917 5.625l.119-.03c.535-.125 1.006-.09 1.743.094-2.415-5.638-6.784-10.61-12.454-13.108a1.082 1.082 0 0 1 .87-1.98c5.513 2.43 9.863 6.942 12.602 12.193-.543-5.223-2.13-8.834-5.675-12.466l-.23-.232c-1.75-1.752-4.448-3.231-7.833-4.416-2.37-.83-4.924-1.464-7.481-1.928-.256-.046-.507-.09-.752-.13l-.35-.058zm28.638 5.147-.206.108a9.218 9.218 0 0 1-2.28.796l-.003 2.36a24.023 24.023 0 0 1 2.489-3.264zm-8.572 0 .055.06a23.965 23.965 0 0 1 2.429 3.193l.001-2.35a9.263 9.263 0 0 1-2.485-.902zm4.287-28.75-.389.426a47.6 47.6 0 0 0-3.616 4.546c-2.473 3.546-3.906 6.818-3.906 9.414 0 6.648 3.699 11.846 7.91 11.846 4.213 0 7.911-5.198 7.911-11.846 0-2.596-1.433-5.868-3.906-9.414a47.723 47.723 0 0 0-3.936-4.898l-.068-.074zm0 9.269c.596 0 1.08.484 1.08 1.081v12.638a1.08 1.08 0 1 1-2.16 0V15.464a1.08 1.08 0 0 1 1.08-1.081z" fill="#5850EC" fill-rule="nonzero"/>
</svg>
