<svg width="77" height="80" viewBox="0 0 77 80" xmlns="http://www.w3.org/2000/svg">
    <path d="M33.914 1.487a7.815 7.815 0 0 1 9.172 0l5.32 3.857a4.245 4.245 0 0 0 2.49.808h6.576a7.8 7.8 0 0 1 7.42 5.38l2.032 6.242c.277.85.816 1.59 1.539 2.114l5.32 3.858a7.778 7.778 0 0 1 2.835 8.705l-2.033 6.242a4.22 4.22 0 0 0 0 2.613l2.033 6.242a7.777 7.777 0 0 1-2.835 8.706l-5.32 3.858a4.227 4.227 0 0 0-1.539 2.113l-2.032 6.242a7.8 7.8 0 0 1-7.42 5.38h-6.576c-.894 0-1.766.283-2.49.808l-5.32 3.857a7.813 7.813 0 0 1-9.172 0l-5.32-3.857a4.241 4.241 0 0 0-2.49-.808h-6.576a7.8 7.8 0 0 1-7.42-5.38l-2.032-6.241a4.227 4.227 0 0 0-1.539-2.114l-5.32-3.858a7.777 7.777 0 0 1-2.835-8.706l2.033-6.242a4.219 4.219 0 0 0 0-2.613L.382 32.451a7.778 7.778 0 0 1 2.835-8.705l5.32-3.857a4.232 4.232 0 0 0 1.539-2.115l2.032-6.242a7.8 7.8 0 0 1 7.42-5.38h6.576c.894 0 1.766-.283 2.49-.807zm7.076 2.879a4.244 4.244 0 0 0-4.98 0l-5.32 3.858a7.816 7.816 0 0 1-4.586 1.487h-6.576a4.235 4.235 0 0 0-4.029 2.92l-2.032 6.243a7.79 7.79 0 0 1-2.834 3.893l-5.32 3.858a4.223 4.223 0 0 0-1.54 4.726l2.033 6.243a7.77 7.77 0 0 1 0 4.812l-2.033 6.242a4.223 4.223 0 0 0 1.54 4.727l5.32 3.858a7.786 7.786 0 0 1 2.834 3.893l2.032 6.242a4.235 4.235 0 0 0 4.03 2.92h6.575c1.647 0 3.253.522 4.586 1.489l5.32 3.857a4.242 4.242 0 0 0 4.98 0l5.32-3.857a7.811 7.811 0 0 1 4.586-1.488h6.576a4.235 4.235 0 0 0 4.029-2.921l2.032-6.243a7.785 7.785 0 0 1 2.834-3.892l5.32-3.858a4.223 4.223 0 0 0 1.54-4.727l-2.032-6.242a7.77 7.77 0 0 1 0-4.812l2.032-6.243a4.223 4.223 0 0 0-1.54-4.726l-5.32-3.858a7.79 7.79 0 0 1-2.834-3.893l-2.032-6.242a4.235 4.235 0 0 0-4.029-2.921h-6.576a7.816 7.816 0 0 1-4.586-1.487zm-2.84 8.397c14.965 0 27.097 12.108 27.097 27.044S53.115 66.851 38.15 66.851c-14.966 0-27.097-12.108-27.097-27.044S23.184 12.763 38.15 12.763zm0 2.847c-13.39 0-24.245 10.833-24.245 24.197 0 13.364 10.855 24.197 24.245 24.197S62.394 53.17 62.394 39.807c0-13.364-10.854-24.197-24.244-24.197zm-9.382 30.111c.95 0 1.782.19 2.496.57a4.01 4.01 0 0 1 1.65 1.595c.385.683.577 1.464.577 2.344 0 .871-.194 1.648-.584 2.332a4.136 4.136 0 0 1-1.655 1.607c-.715.389-1.543.583-2.484.583h-3.581v-9.031h3.58zm11.183 0 3.286 9.031H40.58l-.488-1.473h-3.208l-.488 1.473h-2.644l3.298-9.031h2.901zm6.062 0 1.592 3.484 1.591-3.484h2.837l-3.183 6.162v2.87H46.32v-2.87l-3.183-6.162h2.875zm-17.438 2.178h-.872v4.637h.872c.736 0 1.314-.2 1.733-.602.42-.402.63-.97.63-1.704 0-.743-.21-1.317-.63-1.723-.42-.405-.997-.608-1.733-.608zm9.913.538-.963 2.92h1.939l-.976-2.92zm-7.293-23.484c1.11 0 2.061.194 2.852.58.791.388 1.388.912 1.792 1.572.403.66.604 1.408.604 2.243 0 .957-.247 1.765-.741 2.426-.495.66-1.084 1.104-1.769 1.332v.091c.882.273 1.57.76 2.065 1.457.495.699.742 1.595.742 2.688 0 .91-.21 1.723-.628 2.437-.418.713-1.034 1.271-1.848 1.673-.814.403-1.791.604-2.932.604-1.72 0-3.119-.433-4.199-1.298-1.08-.866-1.65-2.14-1.711-3.826h3.103c.03.744.285 1.34.765 1.788.479.447 1.137.671 1.973.671.776 0 1.373-.216 1.792-.649.418-.432.627-.99.627-1.674 0-.91-.289-1.563-.867-1.958-.578-.395-1.476-.592-2.693-.592h-.661v-2.62h.661c2.16 0 3.24-.72 3.24-2.163 0-.652-.193-1.161-.581-1.525-.388-.365-.947-.547-1.677-.547-.715 0-1.267.194-1.655.58-.388.388-.612.877-.673 1.47H25.65c.076-1.519.612-2.691 1.609-3.519.996-.827 2.308-1.241 3.936-1.241zm13.789.068c2.206 0 3.784.744 4.735 2.232.95 1.488 1.426 3.545 1.426 6.172 0 2.641-.476 4.714-1.426 6.217-.951 1.503-2.53 2.254-4.735 2.254-2.206 0-3.784-.751-4.735-2.254-.95-1.503-1.426-3.576-1.426-6.217 0-2.627.475-4.684 1.426-6.172.95-1.488 2.53-2.232 4.735-2.232zm0 2.96c-.852 0-1.495.244-1.928.73-.434.485-.723 1.112-.867 1.878-.145.767-.217 1.712-.217 2.836 0 1.154.068 2.121.205 2.903.137.782.426 1.412.867 1.89.441.479 1.088.718 1.94.718.852 0 1.498-.24 1.94-.717.44-.479.73-1.109.867-1.89.136-.783.205-1.75.205-2.904 0-1.124-.072-2.069-.217-2.836-.144-.766-.433-1.393-.867-1.878-.434-.486-1.076-.73-1.928-.73z" fill="#5850EC" fill-rule="nonzero"/>
</svg>
