<svg width="80" height="80" viewBox="0 0 80 80" xmlns="http://www.w3.org/2000/svg">
    <path d="M78.775 1.216c3.102 3.08.028 9.914-6.01 15.906a37.282 37.282 0 0 1-2.138 1.964l-.743 20.136a8.322 8.322 0 0 1-2.461 5.603L34.44 77.553c-3.289 3.263-8.62 3.263-11.91 0L2.467 57.643a8.311 8.311 0 0 1 0-11.818L35.45 13.1a8.449 8.449 0 0 1 5.646-2.443l19.106-.694a37.526 37.526 0 0 1 2.332-2.571l.211-.212c6.039-5.991 12.927-9.042 16.03-5.963zM62.222 13.489l-.166.003h-.014c-.913 1.249-1.646 2.475-2.156 3.608-.135.301-.25.586-.348.854.669.235 1.296.619 1.831 1.15a4.888 4.888 0 0 1 0 6.951 4.98 4.98 0 0 1-7.005 0 4.89 4.89 0 0 1 0-6.951c.404-.4.858-.716 1.344-.95.303-1.389.95-2.917 1.881-4.5l-16.361.596c-1.21.043-2.36.54-3.217 1.39L5.03 48.369a4.735 4.735 0 0 0 0 6.733L25.093 75.01a4.825 4.825 0 0 0 6.785 0l32.983-32.728a4.74 4.74 0 0 0 1.401-3.191l.763-20.667c.098-2.654-2.005-4.85-4.638-4.933l-.165-.002zm-21.57 32.732c1.18 0 2.15.38 2.914 1.137.763.757 1.145 1.76 1.145 3.006 0 1.246-.382 2.248-1.145 3.006-.764.757-1.735 1.136-2.914 1.136s-2.15-.379-2.913-1.136c-.764-.758-1.145-1.76-1.145-3.006 0-1.247.381-2.249 1.145-3.006.763-.758 1.734-1.137 2.913-1.137zm1.74-12.168L30.506 54.19h-2.059l11.915-20.137h2.03zm-1.74 13.492c-.734 0-1.324.249-1.768.748-.445.498-.667 1.189-.667 2.07 0 .883.222 1.573.667 2.072.444.499 1.034.748 1.768.748.735 0 1.32-.245 1.754-.734.435-.489.653-1.184.653-2.085 0-.902-.218-1.597-.653-2.086-.435-.489-1.02-.733-1.754-.733zm-10.436-13.78c1.198 0 2.179.38 2.942 1.137.764.757 1.145 1.75 1.145 2.977 0 1.247-.381 2.249-1.145 3.006-.763.758-1.744 1.136-2.942 1.136-1.18 0-2.15-.378-2.914-1.136-.763-.757-1.145-1.76-1.145-3.006 0-1.227.382-2.22 1.145-2.977.764-.758 1.735-1.137 2.914-1.137zm0 1.295c-.735 0-1.32.244-1.754.733-.435.49-.653 1.185-.653 2.086 0 .901.218 1.601.653 2.1.435.499 1.02.748 1.754.748s1.324-.25 1.768-.748c.445-.499.667-1.199.667-2.1 0-.882-.222-1.573-.667-2.071-.444-.499-1.034-.748-1.768-.748zm26.37-12.131.036.115a1.332 1.332 0 0 0 1.299.854 3.956 3.956 0 0 1-1.336-.97zM72.741 4.343c-2.293 1.016-4.965 2.928-7.435 5.379-.186.184-.368.37-.547.555a8.426 8.426 0 0 1 5.166 4.572l.276-.27c2.47-2.45 4.398-5.102 5.42-7.378.847-1.882.91-3.125.59-3.442-.32-.318-1.572-.256-3.47.584z" fill="#5850EC" fill-rule="nonzero"/>
</svg>
