<svg width="24" height="24" viewBox="0 0 24 24" xmlns="http://www.w3.org/2000/svg">
    <path d="M18.857 21.6c-1.97 0-3.478-.684-4.522-2.05-1.044-1.368-1.567-3.2-1.567-5.5 0-2.535.858-4.854 2.572-6.954 1.714-2.1 4.6-3.666 8.66-4.696v3.507a54.458 54.458 0 0 0-2.66 1.1c-.749.337-1.31.723-1.685 1.159-.374.436-.561 1.05-.561 1.843 0 .554.216.98.65 1.278.433.297.936.624 1.507.98.572.357 1.074.892 1.508 1.605.433.714.65 1.764.65 3.15 0 1.467-.434 2.597-1.3 3.39-.868.792-1.951 1.188-3.252 1.188zm-12.768 0c-1.97 0-3.478-.684-4.522-2.05C.522 18.181 0 16.35 0 14.05c0-2.535.857-4.854 2.571-6.954 1.715-2.1 4.601-3.666 8.66-4.696v3.507a54.458 54.458 0 0 0-2.66 1.1c-.748.337-1.31.723-1.684 1.159-.375.436-.562 1.05-.562 1.843 0 .554.217.98.65 1.278.434.297.936.624 1.508.98.571.357 1.074.892 1.507 1.605.434.714.65 1.764.65 3.15 0 1.467-.433 2.597-1.3 3.39-.867.792-1.95 1.188-3.251 1.188z" fill="#939BD6" fill-rule="evenodd"/>
</svg>
