<svg width="41" height="40" viewBox="0 0 41 40" xmlns="http://www.w3.org/2000/svg">
    <path d="M20.417 8c-3.263 0-5.908 2.61-5.908 5.83s2.645 5.83 5.908 5.83c3.262 0 5.908-2.61 5.908-5.83S23.679 8 20.417 8zm0 2.168c2.05 0 3.71 1.64 3.71 3.662 0 2.022-1.66 3.662-3.71 3.662s-3.71-1.64-3.71-3.662c0-2.023 1.66-3.662 3.71-3.662zm4.31 10.681c4.277 0 7.773 3.45 7.773 7.671v2.396c0 .599-.492 1.084-1.098 1.084a1.091 1.091 0 0 1-1.099-1.084V28.52c0-3.024-2.512-5.503-5.577-5.503h-8.452c-3.065 0-5.577 2.479-5.577 5.503v2.396c0 .599-.492 1.084-1.099 1.084A1.091 1.091 0 0 1 8.5 30.916V28.52c0-4.221 3.496-7.67 7.774-7.67h8.452z" fill="#1D2349" fill-rule="nonzero"/>
</svg>
