<svg width="100" height="80" viewBox="0 0 100 80" xmlns="http://www.w3.org/2000/svg">
    <path d="M60.118 8a3.223 3.223 0 0 1 3.217 3.23v4.313H85.7c.088 0 .173.002.255.009l.08.007c.8.09 1.405.637 3.352 3.539l.302.453c.365.55.774 1.174 1.234 1.884l2.832 4.404 1.01 1.584c.85 1.339 1.723 2.721 2.594 4.11l2.372 3.803.268.433v21.31c0 1.784-1.44 3.23-3.217 3.23h-5.686c.006.158.01.316.01.475 0 6.194-5.001 11.216-11.17 11.216-6.17 0-11.17-5.022-11.17-11.216 0-.132.002-.263.006-.394H45.63c.005.13.007.262.007.394 0 6.194-5 11.216-11.17 11.216-6.169 0-11.17-5.022-11.17-11.216 0-.132.002-.263.007-.394h-7.277a3.223 3.223 0 0 1-3.217-3.23v-5.958c0-.987.797-1.787 1.78-1.787s1.78.8 1.78 1.787v5.612l7.646.001c1.596-4.236 5.673-7.248 10.451-7.248 4.778 0 8.855 3.012 10.45 7.249l15.048-.001V19.118h-.19v-7.543H16.37v7.491c0 .948-.735 1.723-1.663 1.784l-.117.004c-.983 0-1.78-.8-1.78-1.788V11.23c0-1.784 1.44-3.23 3.217-3.23h44.091zm-25.65 45.142c-4.204 0-7.61 3.421-7.61 7.642 0 4.22 3.406 7.64 7.61 7.64 4.202 0 7.609-3.42 7.609-7.64s-3.407-7.642-7.61-7.642zm45.469 0c-3.515 0-6.474 2.393-7.348 5.645-.014.158-.05.309-.104.451a7.522 7.522 0 0 0-.158 1.546c0 4.22 3.407 7.64 7.61 7.64s7.61-3.42 7.61-7.64-3.407-7.642-7.61-7.642zm-45.453 3.605c2.36 0 4.272 1.92 4.272 4.29 0 2.369-1.912 4.29-4.272 4.29-2.36 0-4.272-1.921-4.272-4.29 0-2.37 1.913-4.29 4.272-4.29zm45.57 0c2.36 0 4.272 1.92 4.272 4.29 0 2.369-1.912 4.29-4.272 4.29-2.36 0-4.272-1.921-4.272-4.29 0-2.37 1.913-4.29 4.272-4.29zm-45.57 1.43a2.854 2.854 0 0 0-2.848 2.86c0 1.58 1.275 2.86 2.848 2.86a2.854 2.854 0 0 0 2.848-2.86c0-1.58-1.275-2.86-2.848-2.86zm45.57 0a2.854 2.854 0 0 0-2.848 2.86c0 1.58 1.275 2.86 2.848 2.86a2.854 2.854 0 0 0 2.848-2.86c0-1.58-1.275-2.86-2.848-2.86zm4.91-39.06-22.863.001v37.697h7.385c1.563-4.149 5.507-7.124 10.158-7.244l.293-.004c4.747 0 8.802 2.974 10.42 7.167h6.083V36.79l-1.572-2.521-1.56-2.485a737.063 737.063 0 0 0-2.048-3.232l-1.532-2.388a242.333 242.333 0 0 0-3.17-4.812l-.571-.83a39.402 39.402 0 0 0-.882-1.223l-.14-.182zM26.402 39.4c.984 0 1.78.8 1.78 1.787 0 .988-.796 1.788-1.78 1.788H1.781c-.984 0-1.781-.8-1.781-1.788C0 40.2.797 39.4 1.78 39.4h24.621zm50.925-20.03c.59 0 1.068.48 1.068 1.073v16.04c0 .205.165.37.369.37h15.804c.59 0 1.068.48 1.068 1.073A1.07 1.07 0 0 1 94.567 39H78.763a2.51 2.51 0 0 1-2.505-2.516v-16.04a1.07 1.07 0 0 1 1.068-1.073zm-39.1 8.156c.983 0 1.78.8 1.78 1.787 0 .988-.797 1.788-1.78 1.788H4.605c-.984 0-1.78-.8-1.78-1.788 0-.987.796-1.787 1.78-1.787h33.62z" fill="#5850EC" fill-rule="nonzero"/>
</svg>
